<mxfile host="app.diagrams.net" modified="2023-06-15T08:30:23.289Z" agent="Mozilla/5.0 (Windows NT 10.0; Win64; x64; rv:109.0) Gecko/20100101 Firefox/114.0" etag="FpFFEQuwEua4jx-8G1KR" version="21.3.8" type="device">
  <diagram name="Page-1" id="929967ad-93f9-6ef4-fab6-5d389245f69c">
    <mxGraphModel dx="1434" dy="754" grid="1" gridSize="10" guides="1" tooltips="1" connect="1" arrows="1" fold="1" page="1" pageScale="1.5" pageWidth="1169" pageHeight="826" background="none" math="0" shadow="0">
      <root>
        <mxCell id="0" style=";html=1;" />
        <mxCell id="1" style=";html=1;" parent="0" />
        <mxCell id="h_HcGu4XLxo1wrH9jKgV-256" value="Vehicle" style="rounded=0;whiteSpace=wrap;html=1;labelBackgroundColor=none;" vertex="1" parent="1">
          <mxGeometry x="270" y="20" width="200" height="30" as="geometry" />
        </mxCell>
        <mxCell id="h_HcGu4XLxo1wrH9jKgV-257" value="-position : PVector &lt;br&gt;-acc : PVector &lt;br&gt;-vel : PVector &lt;br&gt;-desired : PVector &lt;br&gt;+maxspeed&amp;nbsp; : float &lt;br&gt;+oldspeed : float &lt;br&gt;+maxforce : float &lt;br&gt;+size : float &lt;br&gt;+range : float &lt;br&gt;+timer : int &lt;br&gt;+counter : int &lt;br&gt;+hunger :int " style="rounded=0;whiteSpace=wrap;html=1;align=left;labelBackgroundColor=none;" vertex="1" parent="1">
          <mxGeometry x="270" y="50" width="200" height="190" as="geometry" />
        </mxCell>
        <mxCell id="h_HcGu4XLxo1wrH9jKgV-258" value="&lt;div&gt;Move() : void &lt;/div&gt;&lt;div&gt;Wander() : void &lt;/div&gt;&lt;div&gt;onCell() : void&lt;br&gt;&lt;/div&gt;&lt;div&gt;display() : void&lt;br&gt;update() : void&lt;/div&gt;&lt;div&gt;&lt;br&gt;&lt;/div&gt;" style="rounded=0;html=1;align=left;whiteSpace=wrap;spacingTop=0;spacing=2;spacingRight=0;spacingLeft=0;labelBackgroundColor=none;" vertex="1" parent="1">
          <mxGeometry x="270" y="240" width="200" height="100" as="geometry" />
        </mxCell>
        <mxCell id="h_HcGu4XLxo1wrH9jKgV-259" style="edgeStyle=orthogonalEdgeStyle;rounded=0;orthogonalLoop=1;jettySize=auto;html=1;exitX=0.25;exitY=1;exitDx=0;exitDy=0;entryX=0;entryY=0.75;entryDx=0;entryDy=0;" edge="1" parent="1" source="h_HcGu4XLxo1wrH9jKgV-263" target="h_HcGu4XLxo1wrH9jKgV-272">
          <mxGeometry relative="1" as="geometry" />
        </mxCell>
        <mxCell id="h_HcGu4XLxo1wrH9jKgV-260" value="Hunter" style="rounded=0;whiteSpace=wrap;html=1;labelBackgroundColor=none;" vertex="1" parent="1">
          <mxGeometry x="100" y="390" width="200" height="30" as="geometry" />
        </mxCell>
        <mxCell id="h_HcGu4XLxo1wrH9jKgV-261" value="" style="rounded=0;whiteSpace=wrap;html=1;align=left;labelBackgroundColor=none;" vertex="1" parent="1">
          <mxGeometry x="100" y="420" width="200" height="60" as="geometry" />
        </mxCell>
        <mxCell id="h_HcGu4XLxo1wrH9jKgV-262" style="edgeStyle=orthogonalEdgeStyle;rounded=0;orthogonalLoop=1;jettySize=auto;html=1;exitX=0;exitY=0.5;exitDx=0;exitDy=0;" edge="1" parent="1" source="h_HcGu4XLxo1wrH9jKgV-257">
          <mxGeometry relative="1" as="geometry">
            <mxPoint x="200" y="390" as="targetPoint" />
          </mxGeometry>
        </mxCell>
        <mxCell id="h_HcGu4XLxo1wrH9jKgV-263" value="&lt;div&gt;seek() : void&lt;/div&gt;&lt;div&gt;&lt;br&gt;&lt;/div&gt;" style="rounded=0;html=1;align=left;whiteSpace=wrap;spacingTop=0;spacing=2;spacingRight=0;spacingLeft=0;labelBackgroundColor=none;" vertex="1" parent="1">
          <mxGeometry x="100" y="480" width="200" height="60" as="geometry" />
        </mxCell>
        <mxCell id="h_HcGu4XLxo1wrH9jKgV-264" style="edgeStyle=orthogonalEdgeStyle;rounded=0;orthogonalLoop=1;jettySize=auto;html=1;exitX=0.75;exitY=1;exitDx=0;exitDy=0;entryX=1;entryY=0.75;entryDx=0;entryDy=0;" edge="1" parent="1" source="h_HcGu4XLxo1wrH9jKgV-268" target="h_HcGu4XLxo1wrH9jKgV-272">
          <mxGeometry relative="1" as="geometry" />
        </mxCell>
        <mxCell id="h_HcGu4XLxo1wrH9jKgV-265" value="Prey" style="rounded=0;whiteSpace=wrap;html=1;labelBackgroundColor=none;" vertex="1" parent="1">
          <mxGeometry x="420" y="390" width="200" height="30" as="geometry" />
        </mxCell>
        <mxCell id="h_HcGu4XLxo1wrH9jKgV-266" value="&lt;br&gt;+isEaten(Vehicle _target) : boolean&lt;br&gt;+fullHunger() : boolean " style="rounded=0;whiteSpace=wrap;html=1;align=left;labelBackgroundColor=none;" vertex="1" parent="1">
          <mxGeometry x="420" y="420" width="200" height="60" as="geometry" />
        </mxCell>
        <mxCell id="h_HcGu4XLxo1wrH9jKgV-267" style="edgeStyle=orthogonalEdgeStyle;rounded=0;orthogonalLoop=1;jettySize=auto;html=1;exitX=1;exitY=0.5;exitDx=0;exitDy=0;" edge="1" parent="1" source="h_HcGu4XLxo1wrH9jKgV-257">
          <mxGeometry relative="1" as="geometry">
            <mxPoint x="520" y="390" as="targetPoint" />
          </mxGeometry>
        </mxCell>
        <mxCell id="h_HcGu4XLxo1wrH9jKgV-268" value="&lt;div&gt;&lt;br&gt;&lt;/div&gt;&lt;div&gt;flee() : void&lt;br&gt;void eat() : void&lt;/div&gt;" style="rounded=0;html=1;align=left;whiteSpace=wrap;spacingTop=0;spacing=2;spacingRight=0;spacingLeft=0;labelBackgroundColor=none;" vertex="1" parent="1">
          <mxGeometry x="420" y="480" width="200" height="60" as="geometry" />
        </mxCell>
        <mxCell id="h_HcGu4XLxo1wrH9jKgV-269" value="Cell" style="rounded=0;whiteSpace=wrap;html=1;labelBackgroundColor=none;" vertex="1" parent="1">
          <mxGeometry x="250" y="660" width="200" height="30" as="geometry" />
        </mxCell>
        <mxCell id="h_HcGu4XLxo1wrH9jKgV-270" style="edgeStyle=orthogonalEdgeStyle;rounded=0;orthogonalLoop=1;jettySize=auto;html=1;exitX=0;exitY=0.25;exitDx=0;exitDy=0;entryX=0.5;entryY=1;entryDx=0;entryDy=0;" edge="1" parent="1" source="h_HcGu4XLxo1wrH9jKgV-272" target="h_HcGu4XLxo1wrH9jKgV-263">
          <mxGeometry relative="1" as="geometry" />
        </mxCell>
        <mxCell id="h_HcGu4XLxo1wrH9jKgV-271" style="edgeStyle=orthogonalEdgeStyle;rounded=0;orthogonalLoop=1;jettySize=auto;html=1;exitX=1;exitY=0.25;exitDx=0;exitDy=0;entryX=0.5;entryY=1;entryDx=0;entryDy=0;" edge="1" parent="1" source="h_HcGu4XLxo1wrH9jKgV-272" target="h_HcGu4XLxo1wrH9jKgV-268">
          <mxGeometry relative="1" as="geometry" />
        </mxCell>
        <mxCell id="h_HcGu4XLxo1wrH9jKgV-272" value="&lt;div&gt;+board : int[][] &lt;br&gt;&lt;/div&gt;&lt;div&gt;+columns : int &lt;/div&gt;&lt;div&gt;+rows : int &lt;br&gt;+w : int &lt;/div&gt;&lt;div&gt;-temp : int &lt;/div&gt;&lt;div&gt;-neighboors : int &lt;br&gt;-water : int &lt;br&gt;&lt;/div&gt;" style="rounded=0;whiteSpace=wrap;html=1;align=left;labelBackgroundColor=none;" vertex="1" parent="1">
          <mxGeometry x="250" y="690" width="200" height="110" as="geometry" />
        </mxCell>
        <mxCell id="h_HcGu4XLxo1wrH9jKgV-273" value="generate()  : void&lt;br&gt;cellDraw()  : void" style="rounded=0;html=1;align=left;whiteSpace=wrap;spacingTop=0;spacing=2;spacingRight=0;spacingLeft=0;labelBackgroundColor=none;" vertex="1" parent="1">
          <mxGeometry x="250" y="801.25" width="200" height="60" as="geometry" />
        </mxCell>
      </root>
    </mxGraphModel>
  </diagram>
</mxfile>
